<svg
   version="1.1"
   id="svg1"
   width="500"
   height="500"
   viewBox="0 0 500 500"
   xmlns="http://www.w3.org/2000/svg"
   xmlns:svg="http://www.w3.org/2000/svg">
  <defs
     id="defs1" />
  <g
     id="g1">
    <path
       style="fill:#000000;stroke-width:0.722548"
       d="m 234.27988,493.32704 c -4.50282,-2.68526 -55.68292,-52.96995 -56.69115,-55.69932 -0.62206,-1.68406 -0.63602,-28.03063 -0.042,-79.23904 l 0.88997,-76.71611 -39.89257,-60.48736 C 116.60323,187.91718 89.546798,146.90996 78.418727,130.05806 50.634963,87.983454 49.960958,86.876659 50.001356,83.394017 50.071676,77.333739 56.3469,72.115703 62.362408,73.115448 c 4.006181,0.665808 6.540069,3.89491 24.202851,30.843232 8.645431,13.19044 19.293821,29.37751 23.663091,35.97125 4.36928,6.59375 23.4772,35.56915 42.46205,64.38978 18.98484,28.82062 35.04328,52.94371 35.6854,53.60687 0.96986,1.00166 2.35627,-0.55859 8.18946,-9.21634 l 7.02195,-10.42209 -4.73591,-7.21385 C 189.5071,216.84105 99.40456,80.423999 85.275122,59.117706 69.942562,35.99718 68.416937,32.519993 71.289359,27.241301 c 2.579548,-4.740482 4.005365,-4.982041 35.255371,-5.972869 19.73201,-0.625631 29.66104,-0.611142 31.22289,0.04556 1.58893,0.668108 17.9776,24.709462 53.52887,78.524225 28.18134,42.658733 51.44538,77.560133 51.69787,77.558693 0.25249,-0.001 6.38638,-9.06044 13.63084,-20.13108 72.52763,-110.833277 93.13648,-141.707067 95.27698,-142.732761 1.60235,-0.76782 11.39607,-1.405384 31.26594,-2.035387 31.35777,-0.994244 32.66476,-0.851628 35.19654,3.84056 3.0639,5.67839 4.77397,2.799894 -63.2627,106.488488 -35.3555,53.88219 -66.47958,101.33812 -69.16463,105.45765 l -4.88187,7.49005 6.45248,9.85382 c 3.54886,5.41957 6.85695,9.73545 7.35131,9.59081 0.49435,-0.14465 28.66716,-42.5961 62.60617,-94.33658 33.93903,-51.74048 62.67788,-95.11147 63.86409,-96.379998 6.05833,-6.47872 16.90017,-2.222785 16.79791,6.593971 -0.047,4.057763 4.03592,-2.40726 -64.24721,101.729077 -30.72214,46.85335 -58.74796,89.60334 -62.27959,94.99999 l -6.42114,9.8121 -0.89007,76.72431 c -0.59408,51.21234 -1.21962,77.58349 -1.88119,79.30822 -1.12473,2.93207 -54.84107,57.66251 -58.67381,59.78148 -3.37099,1.86368 -6.18258,1.82662 -9.45453,-0.12459 z m 24.57749,-41.88807 c 10.35061,-10.42203 18.82226,-19.20634 18.82593,-19.52068 0.0103,-0.88606 -36.29318,-35.46943 -37.2033,-35.44058 -0.93305,0.0296 -38.09625,36.85789 -38.10676,37.76333 -0.008,0.69265 36.50756,36.18381 37.20546,36.16167 0.25266,-0.007 8.92808,-8.54169 19.27867,-18.96374 z m -27.71921,-122.56286 0.55667,-47.98741 -7.76865,-11.86284 c -4.27278,-6.52456 -8.0326,-11.84379 -8.35518,-11.82051 -0.32258,0.0232 -4.05775,5.45783 -8.30035,12.07679 l -7.71383,12.03446 -0.74401,64.13677 -0.74402,64.13677 16.25631,-16.36332 16.25635,-16.36333 z m 45.47911,-61.74264 c -4.09542,-6.36022 -7.70977,-11.57532 -8.03195,-11.58909 -0.32216,-0.0139 -4.20809,5.5389 -8.63543,12.3393 l -8.04971,12.36438 -0.55648,47.96823 -0.55646,47.9682 15.66109,15.1634 15.66109,15.16341 0.97702,-63.90688 0.97702,-63.90689 z M 263.29629,225.74716 C 342.26523,105.71156 388.96128,34.104065 388.68082,33.472327 388.50057,33.066324 382.47265,32.863528 375.28546,33.02167 l -13.06765,0.28753 -3.6547,5.682905 C 331.05645,81.763855 250.38086,203.47934 248.60594,204.88479 c -3.10247,2.45667 -8.81501,2.63777 -11.87328,0.37644 -1.27871,-0.94549 -15.63932,-21.90179 -31.91245,-46.56954 -16.27311,-24.66777 -33.03189,-50.0455 -37.24167,-56.39497 -4.20979,-6.34945 -15.10823,-22.812457 -24.21874,-36.584473 l -16.56458,-25.04002 -13.13137,0.373631 c -7.22225,0.205498 -13.30442,0.682222 -13.51591,1.059389 -0.33476,0.596961 8.98447,15.005992 37.20378,57.523043 3.88999,5.86093 24.49499,37.03295 45.78887,69.27117 21.29389,32.23823 43.14961,65.31219 48.56828,73.49774 5.41865,8.1855 10.15063,14.76776 10.5155,14.62721 0.36488,-0.14056 9.84725,-14.21532 21.07192,-31.27725 z"
       id="path1" />
  </g>
</svg>
