<?xml version="1.0" standalone="no"?>
<!DOCTYPE svg PUBLIC "-//W3C//DTD SVG 20010904//EN"
 "http://www.w3.org/TR/2001/REC-SVG-20010904/DTD/svg10.dtd">
<svg version="1.0" xmlns="http://www.w3.org/2000/svg"
 width="700.000000pt" height="700.000000pt" viewBox="0 0 700.000000 700.000000"
 preserveAspectRatio="xMidYMid meet">
<metadata>
Created by potrace 1.14, written by Peter Selinger 2001-2017
</metadata>
<g transform="translate(0.000000,700.000000) scale(0.100000,-0.100000)"
fill="#000000" stroke="none">
<path d="M5287 6824 c-1 -1 -65 -4 -142 -8 -132 -6 -180 -11 -215 -21 -8 -3
-41 -42 -74 -87 -54 -76 -603 -902 -806 -1212 -509 -778 -642 -976 -652 -970
-5 3 -206 302 -445 663 -754 1136 -923 1386 -1008 1496 -15 19 -27 20 -233 19
-350 -1 -590 -14 -658 -35 -34 -11 -74 -71 -74 -112 0 -39 63 -152 205 -370
72 -109 137 -208 145 -222 8 -13 27 -41 41 -62 15 -21 116 -173 225 -338 406
-616 876 -1329 1050 -1590 98 -148 184 -280 190 -292 11 -20 3 -35 -74 -149
-80 -117 -114 -156 -126 -144 -6 7 -547 822 -881 1330 -787 1195 -802 1218
-854 1244 -34 18 -98 12 -131 -12 -38 -28 -70 -81 -70 -116 0 -17 12 -53 26
-80 33 -62 149 -241 566 -871 123 -187 319 -483 434 -658 115 -174 336 -509
490 -743 l282 -426 -4 -252 c-1 -138 -6 -627 -9 -1087 l-7 -836 28 -34 c37
-45 490 -497 632 -629 62 -58 133 -116 157 -129 83 -44 87 -41 429 303 313
314 485 496 504 532 16 31 25 386 38 1598 l6 589 102 156 c57 86 146 221 198
301 52 80 152 233 223 340 70 107 182 278 249 380 67 101 171 260 231 352 61
92 167 254 236 360 70 106 184 281 254 388 201 307 337 522 356 564 38 85 -16
172 -114 183 -67 8 -96 -20 -231 -222 -169 -253 -610 -919 -614 -927 -3 -6
-153 -236 -182 -278 -6 -8 -47 -71 -93 -140 -359 -547 -746 -1128 -755 -1134
-6 -3 -23 11 -40 31 -45 59 -152 221 -152 232 0 5 31 56 68 113 38 57 98 148
134 203 36 55 126 192 200 305 74 113 181 277 239 365 57 87 163 248 234 357
120 182 246 374 500 763 350 534 509 787 539 859 24 57 20 91 -13 128 l-29 33
-262 0 c-143 1 -262 0 -263 -1z m146 -291 c9 -6 5 -13 -212 -348 -200 -310
-221 -343 -593 -910 -921 -1406 -1225 -1865 -1237 -1865 -16 0 -130 168 -579
850 -88 135 -165 250 -170 255 -5 6 -11 15 -13 20 -2 6 -61 96 -130 200 -981
1480 -1089 1645 -1089 1670 0 7 8 14 18 13 9 0 91 3 182 7 l165 7 61 -94 c34
-51 209 -316 390 -588 180 -272 387 -586 460 -697 74 -112 182 -275 241 -364
59 -88 115 -172 123 -185 8 -13 38 -56 66 -96 27 -40 78 -113 111 -163 34 -49
72 -100 85 -112 50 -47 139 -34 186 25 54 69 927 1382 1340 2017 118 182 220
337 228 345 10 12 45 15 186 17 95 0 177 -1 181 -4z m-1561 -3273 l105 -161
-3 -172 c-1 -95 -5 -350 -8 -567 -9 -598 -17 -1045 -19 -1046 -1 -1 -100 93
-219 210 l-218 211 6 430 c3 237 7 539 8 672 l3 242 113 170 c63 94 117 171
120 171 4 0 54 -72 112 -160z m-732 -35 l103 -155 0 -93 c-1 -50 -4 -353 -7
-672 l-7 -580 -228 -228 -228 -229 3 209 c13 1166 17 1476 16 1523 0 50 5 63
56 145 31 50 60 92 64 93 4 2 8 8 8 14 0 5 21 40 48 78 31 46 51 65 58 59 6
-5 58 -79 114 -164z m356 -1892 c55 -50 166 -156 248 -235 l149 -145 -264
-266 c-145 -147 -269 -267 -274 -267 -20 0 -515 485 -515 504 0 7 117 128 261
269 232 229 262 256 278 245 10 -7 63 -54 117 -105z"/>
</g>
</svg>
